# Blender v2.78 (sub 0) OBJ File: ''
# www.blender.org
mtllib brick3.mtl
o med_Untitled
v 0.111463 0.354594 0.479097
v 0.064108 0.313036 0.354868
v 0.276108 0.369177 0.677476
v 0.336786 0.213062 0.632933
v 0.926633 0.264813 0.631213
v 0.759101 0.372743 0.757236
v 0.698931 0.621958 0.757865
v 0.449669 0.674600 0.702526
v 0.632966 0.741283 0.677223
v 0.495618 0.741068 0.672741
v 0.792698 0.637126 0.636124
v 0.725524 0.756252 0.540567
v 0.947457 0.452480 0.646706
v 0.977315 0.361387 0.603455
v 0.125322 0.216245 0.295184
v 0.344634 0.153614 0.485798
v 0.877475 0.180372 0.402922
v 0.963630 0.277317 0.381200
v 0.891565 0.530001 0.653314
v 0.779845 0.487994 0.822478
v 0.394046 0.526111 0.733220
v 0.225956 0.561452 0.554843
v 0.333078 0.757953 0.573457
v 0.447097 0.972006 0.412360
v 0.597294 0.981087 0.404979
v 0.718435 0.812078 0.429010
v 0.816810 0.656306 0.400611
v 0.899521 0.537624 0.392979
v 0.967674 0.414244 0.398783
v 0.601277 0.138910 0.471367
v 0.582428 0.244043 0.666183
v 0.568131 0.382145 0.767759
v 0.541046 0.534670 0.795960
v 0.557935 0.636572 0.758057
v 0.559943 0.750310 0.669897
v 0.520781 0.990737 0.432765
v 0.601473 0.980702 0.332242
v 0.516148 0.995801 0.242121
v 0.458158 1.001581 0.258731
v 0.234056 0.719341 0.314281
v 0.165452 0.624477 0.321530
v 0.104077 0.534501 0.307355
v 0.112369 0.634599 0.316947
v 0.085102 0.556632 0.280304
v 0.030178 0.659866 0.177657
v 0.012209 0.610101 0.131554
v 0.075088 0.496685 0.209551
v 0.057158 0.518972 0.189187
v 0.051745 0.483824 0.103280
v 0.072807 0.470921 0.135374
v 0.021146 0.522093 0.074978
v 0.011532 0.636093 0.027168
v 0.030194 0.529713 0.034092
v 0.017968 0.697094 0.091504
v 0.112965 0.715392 0.258820
v 0.121094 0.763819 0.201989
v 0.122121 0.798319 0.117453
v 0.073303 0.773149 0.057154
v 0.044693 0.721450 0.009478
v 0.047039 0.498357 0.030450
v 0.193811 0.675432 0.264949
v 0.224115 0.713468 0.178150
v 0.442754 0.949261 0.194035
v 0.290840 0.797871 0.240077
v 0.192833 0.791681 0.152447
v 0.181372 0.797548 0.106339
v 0.172504 0.796684 0.062994
v 0.146008 0.755880 -0.002273
v 0.054260 0.420459 0.165575
v 0.057438 0.279497 0.225348
v -0.005089 0.440126 0.128980
v 0.012444 0.424876 0.150991
v -0.024954 0.403460 0.124444
v 0.004721 0.385763 0.139039
v 0.017805 0.485176 0.065611
v -0.014456 0.444010 0.101442
v 0.008434 0.481210 0.027267
v 0.007969 0.481141 0.049867
v -0.018214 0.441524 0.028158
v -0.027936 0.445035 0.052880
v -0.038564 0.383680 0.032040
v -0.039364 0.385718 0.053291
v -0.037581 0.400421 0.094919
v -0.017710 0.366067 0.026189
v -0.021115 0.366957 0.048418
v 0.008203 0.353377 0.071667
v 0.014908 0.361882 0.030026
v 0.053860 0.355137 0.028721
v 0.045571 0.350792 0.069588
v 0.049753 0.375004 0.130583
v 0.039564 0.418058 0.151606
v 0.047032 0.361041 0.147937
v 0.054263 0.347696 0.091789
v 0.032141 0.332720 0.032618
v 0.028571 0.333441 0.060958
v 0.007256 0.286106 0.103365
v 0.034272 0.292942 0.142977
v 0.055906 0.323839 0.135649
v 0.059543 0.335041 0.131690
v 0.063714 0.351866 0.108323
v 0.047099 0.340649 0.159694
v 0.061077 0.313890 0.143393
v 0.060838 0.308785 0.156926
v 0.044707 0.284146 0.147465
v 0.010780 0.299825 0.034978
v -0.000961 0.268798 0.033617
v -0.004846 0.258588 0.061799
v 0.008822 0.229872 0.053568
v 0.025220 0.229843 0.088387
v 0.041751 0.241269 0.125473
v 0.053123 0.245474 0.130764
v 0.090662 0.258754 0.143060
v 0.094126 0.255465 0.152819
v 0.092483 0.232944 0.197421
v 0.017165 0.233316 0.028931
v 0.125776 0.229750 0.027951
v 0.088291 0.213388 0.058401
v 0.081249 0.222311 0.088438
v 0.079426 0.234754 0.119566
v 0.096709 0.238110 0.127647
v 0.115277 0.228752 0.091510
v 0.138368 0.243965 0.082983
v 0.162009 0.276233 0.029545
v 0.152474 0.258768 0.073746
v 0.158480 0.323957 0.038863
v 0.156197 0.260449 0.091930
v 0.188725 0.321067 0.035336
v 0.195036 0.259028 0.088025
v 0.110165 0.246365 0.140002
v 0.147785 0.212493 0.159013
v 0.155802 0.203517 0.240577
v 0.279186 0.314291 0.026516
v 0.286175 0.256178 0.078252
v 0.264971 0.181577 0.180542
v 0.259102 0.161084 0.247182
v 0.271472 0.155830 0.341729
v 0.370375 0.150658 0.232396
v 0.429628 0.121357 0.315612
v 0.448908 0.023870 0.331732
v 0.389090 0.019506 0.261814
v 0.494550 0.048599 0.361981
v 0.497537 0.122024 0.372470
v 0.598424 0.055406 0.382705
v 0.601301 0.128798 0.393027
v 0.728360 0.060954 0.359470
v 0.731310 0.134666 0.369397
v 0.831950 0.092113 0.296910
v 0.829488 0.156340 0.319226
v 0.362421 0.160358 0.182827
v 0.353533 0.047293 0.114463
v 0.387655 0.200785 0.106024
v 0.399918 0.114304 0.040252
v 0.944491 0.207206 0.234192
v 0.910286 0.246347 0.263725
v 0.988604 0.313588 0.190039
v 0.942529 0.329616 0.233234
v 0.907589 0.421279 0.138155
v 0.884764 0.425899 0.177990
v 0.877356 0.411291 0.079506
v 0.806556 0.420399 0.097533
v 0.956635 0.360050 0.062213
v 1.007414 0.283259 0.061874
v 0.978035 0.309829 0.025228
v 0.968612 0.162084 0.131071
v 0.872258 0.052514 0.194700
v 0.736378 -0.043793 0.251728
v 0.640757 -0.050137 0.296460
v 0.558580 -0.050873 0.290072
v 0.476015 -0.059250 0.251722
v 0.402911 -0.050746 0.197341
v 0.382077 -0.035968 0.129653
v 0.444879 0.050391 0.013301
v 0.412202 0.244419 0.071927
v 0.508818 0.031637 0.010650
v 0.468186 -0.072606 0.100555
v 0.648555 0.029578 -0.005259
v 0.607924 -0.074665 0.084646
v 0.755007 0.053588 -0.006520
v 0.760454 -0.024265 0.081494
v 0.858988 0.123634 0.004187
v 0.890476 0.063193 0.079768
v 0.940619 0.212825 0.005841
v 0.971406 0.174932 0.073127
v 0.785147 0.575006 0.113773
v 0.810010 0.635342 0.265785
v 0.687577 0.765342 0.153574
v 0.712458 0.825643 0.304569
v 0.759981 0.537380 0.070121
v 0.640895 0.726788 0.079467
v 0.513228 0.840785 0.105304
v 0.477514 0.924479 0.117515
v 0.443807 0.980862 0.165683
v 0.366329 1.017164 0.191451
v 0.347474 0.982169 0.235960
v 0.285197 0.938685 0.242118
v 0.296570 0.845453 0.251892
v 0.227727 0.744081 0.173113
v 0.217521 0.858510 0.218023
v 0.183418 0.901639 0.142738
v 0.266984 0.997495 0.205215
v 0.184494 0.893239 0.069476
v 0.206724 0.860235 0.013990
v 0.208507 0.737467 0.023861
v 0.343565 1.064960 0.124162
v 0.228968 0.996497 0.138047
v 0.212712 0.983115 0.073188
v 0.271736 1.037158 0.040248
v 0.404431 1.038210 0.098808
v 0.433653 0.988984 0.049934
v 0.346050 1.037335 0.024766
v 0.351990 1.068334 0.080905
v 0.259061 0.957503 0.013858
v 0.886085 0.417114 0.759789
vt 0.2399 0.2599
vt 0.2691 0.2572
vt 0.2079 0.3118
vt 0.1997 0.2829
vt 0.1350 0.3202
vt 0.1575 0.3079
vt 0.1679 0.3315
vt 0.1157 0.3420
vt 0.1247 0.2891
vt 0.1387 0.2769
vt 0.1486 0.2877
vt 0.1267 0.3081
vt 0.1206 0.2700
vt 0.1277 0.2626
vt 0.1010 0.2717
vt 0.1074 0.2926
vt 0.1069 0.3112
vt 0.1190 0.3206
vt 0.1059 0.3343
vt 0.1066 0.3225
vt 0.2829 0.2877
vt 0.2261 0.3298
vt 0.1173 0.3749
vt 0.1789 0.3662
vt 0.0924 0.3612
vt 0.1675 0.2745
vt 0.1901 0.2423
vt 0.1474 0.2614
vt 0.1513 0.2349
vt 0.1356 0.2580
vt 0.1124 0.2210
vt 0.1066 0.2277
vt 0.0908 0.2605
vt 0.0992 0.2327
vt 0.0798 0.2889
vt 0.0777 0.3134
vt 0.0821 0.3378
vt 0.0943 0.2292
vt 0.0939 0.2132
vt 0.0989 0.2079
vt 0.1664 0.1966
vt 0.1969 0.1989
vt 0.2296 0.2044
vt 0.9602 0.0607
vt 0.9631 0.0681
vt 0.9396 0.0729
vt 0.9428 0.0629
vt 0.9560 0.0308
vt 0.9452 0.0366
vt 0.2605 0.1922
vt 0.9727 0.0469
vt 0.9768 0.0532
vt 0.9851 0.0342
vt 0.9878 0.0425
vt 0.9761 0.0258
vt 0.9526 0.0127
vt 0.9771 0.0182
vt 0.9395 0.0231
vt 0.9296 0.0517
vt 0.9205 0.0436
vt 0.9214 0.0208
vt 0.9131 0.0317
vt 0.9312 0.0099
vt 0.9857 0.0202
vt 0.9237 0.0683
vt 0.9067 0.0621
vt 0.1801 0.1859
vt 0.0944 0.1978
vt 0.1420 0.1891
vt 0.1642 0.1717
vt 0.9033 0.0437
vt 0.9008 0.0254
vt 0.9012 0.0344
vt 0.9062 0.0101
vt 0.3031 0.2576
vt 0.2921 0.2003
vt 0.2817 0.1806
vt 0.6935 0.8231
vt 0.6928 0.8280
vt 0.6775 0.8265
vt 0.6792 0.8190
vt 0.6995 0.8246
vt 0.6988 0.8300
vt 0.6857 0.8115
vt 0.6948 0.8191
vt 0.6781 0.8046
vt 0.6891 0.8046
vt 0.6884 0.8089
vt 0.6987 0.8126
vt 0.7006 0.8083
vt 0.7086 0.8197
vt 0.7117 0.8177
vt 0.7026 0.8219
vt 0.7158 0.8235
vt 0.7118 0.8242
vt 0.7095 0.8314
vt 0.7169 0.8316
vt 0.7100 0.8389
vt 0.7173 0.8404
vt 0.6987 0.8385
vt 0.6904 0.8329
vt 0.6872 0.8353
vt 0.6975 0.8424
vt 0.7068 0.8414
vt 0.9678 0.1023
vt 0.9657 0.0985
vt 0.9690 0.0949
vt 0.9736 0.0998
vt 0.9552 0.0969
vt 0.9676 0.0911
vt 0.9549 0.0901
vt 0.9608 0.0862
vt 0.9680 0.0879
vt 0.9637 0.0859
vt 0.3199 0.2027
vt 0.4047 0.1669
vt 0.3804 0.1992
vt 0.3476 0.2274
vt 0.3195 0.2244
vt 0.9579 0.0842
vt 0.9569 0.0816
vt 0.3273 0.2482
vt 0.9531 0.0889
vt 0.9606 0.1050
vt 0.9544 0.1071
vt 0.9522 0.1032
vt 0.9462 0.0991
vt 0.9472 0.1043
vt 0.9466 0.0933
vt 0.9459 0.0915
vt 0.9429 0.0811
vt 0.9437 0.0832
vt 0.3100 0.2799
vt 0.3259 0.2769
vt 0.9459 0.1079
vt 0.9344 0.0982
vt 0.9245 0.1001
vt 0.9375 0.0945
vt 0.9405 0.0901
vt 0.9385 0.0863
vt 0.9314 0.0905
vt 0.9250 0.0885
vt 0.9194 0.0867
vt 0.9098 0.0932
vt 0.8977 0.0842
vt 0.9212 0.0826
vt 0.3630 0.3253
vt 0.3366 0.3221
vt 0.3392 0.3080
vt 0.3657 0.3146
vt 0.9375 0.0819
vt 0.3147 0.3020
vt 0.3274 0.2875
vt 0.2936 0.2998
vt 0.3309 0.3537
vt 0.3557 0.3565
vt 0.2965 0.3383
vt 0.2804 0.3317
vt 0.2596 0.3271
vt 0.7315 0.7133
vt 0.7231 0.7030
vt 0.7408 0.6927
vt 0.7569 0.7079
vt 0.7175 0.6942
vt 0.7238 0.6795
vt 0.6987 0.6712
vt 0.6978 0.6873
vt 0.6713 0.6885
vt 0.6667 0.6727
vt 0.6398 0.6797
vt 0.6464 0.6939
vt 0.7621 0.7186
vt 0.7404 0.7321
vt 0.7527 0.7482
vt 0.7762 0.7339
vt 0.2817 0.3679
vt 0.2676 0.3640
vt 0.3037 0.3837
vt 0.2390 0.3680
vt 0.2133 0.3714
vt 0.1835 0.3808
vt 0.1499 0.3875
vt 0.6080 0.6937
vt 0.6064 0.6802
vt 0.5820 0.6922
vt 0.5823 0.6790
vt 0.5527 0.6826
vt 0.5528 0.6734
vt 0.1211 0.3948
vt 0.0840 0.3861
vt 0.0588 0.3663
vt 0.5417 0.6898
vt 0.5281 0.6779
vt 0.5591 0.7048
vt 0.5671 0.7183
vt 0.5771 0.7141
vt 0.6066 0.7149
vt 0.6402 0.7141
vt 0.6728 0.7135
vt 0.6892 0.7096
vt 0.7021 0.7113
vt 0.7144 0.7174
vt 0.7242 0.7237
vt 0.7278 0.7303
vt 0.7318 0.7546
vt 0.3192 0.3959
vt 0.7884 0.7432
vt 0.7155 0.7351
vt 0.7143 0.7588
vt 0.6933 0.7375
vt 0.6824 0.7612
vt 0.6636 0.7371
vt 0.6544 0.7585
vt 0.6310 0.7315
vt 0.6209 0.7510
vt 0.5999 0.7235
vt 0.5878 0.7371
vt 0.0407 0.3357
vt 0.0318 0.2919
vt 0.0601 0.2884
vt 0.0774 0.2529
vt 0.0537 0.2485
vt 0.0172 0.3261
vt 0.0185 0.2941
vt 0.0373 0.2413
vt 0.0606 0.2094
vt 0.8040 0.1929
vt 0.7824 0.1973
vt 0.7800 0.1866
vt 0.8317 0.1753
vt 0.7620 0.1990
vt 0.7671 0.2050
vt 0.7408 0.1815
vt 0.7495 0.1970
vt 0.7336 0.1743
vt 0.7114 0.1798
vt 0.7062 0.1749
vt 0.9025 0.0569
vt 0.7307 0.1950
vt 0.7126 0.1945
vt 0.7296 0.2096
vt 0.7079 0.2034
vt 0.7521 0.2072
vt 0.7238 0.2198
vt 0.7029 0.2114
vt 0.6860 0.2197
vt 0.7142 0.2308
vt 0.8906 0.0113
vt 0.7667 0.2168
vt 0.7467 0.2153
vt 0.7423 0.2228
vt 0.7554 0.2273
vt 0.7777 0.2155
vt 0.7935 0.2195
vt 0.7692 0.2320
vt 0.7684 0.2214
vt 0.7420 0.2371
vn -0.8524 -0.0815 0.5165
vn -0.9269 -0.2371 0.2909
vn -0.3269 -0.7077 0.6263
vn -0.5858 -0.1926 0.7872
vn 0.0720 -0.5387 0.8394
vn -0.1233 -0.4055 0.9057
vn 0.0176 -0.7530 0.6577
vn 0.5669 -0.6655 0.4856
vn 0.3036 0.5868 0.7507
vn -0.1276 0.4723 0.8721
vn -0.2088 0.0953 0.9733
vn 0.3110 0.1243 0.9422
vn 0.3300 0.6820 0.6526
vn -0.0302 0.6633 0.7477
vn 0.7245 0.6082 0.3243
vn 0.6831 0.6402 0.3514
vn 0.7493 0.5807 0.3183
vn 0.5988 -0.1045 0.7940
vn 0.9622 -0.1536 0.2247
vn 0.9057 0.2749 0.3227
vn -0.6429 -0.7476 0.1669
vn -0.2727 -0.9109 0.3095
vn 0.5314 -0.8392 0.1156
vn 0.0793 -0.9431 0.3230
vn 0.9287 -0.3624 -0.0794
vn -0.4981 0.1360 0.8564
vn -0.7738 0.3548 0.5248
vn -0.4006 0.4710 0.7860
vn -0.6419 0.5578 0.5262
vn -0.2448 0.6354 0.7323
vn -0.4643 0.8155 0.3456
vn -0.0072 0.8977 0.4405
vn 0.7976 0.5802 0.1650
vn 0.4597 0.8479 0.2641
vn 0.8272 0.5618 0.0115
vn 0.8444 0.5247 -0.1083
vn 0.9547 0.2676 -0.1302
vn 0.5568 0.8200 -0.1326
vn 0.2340 0.8765 -0.4207
vn -0.4016 0.9004 -0.1669
vn -0.8025 0.5809 0.1360
vn -0.6087 0.5008 0.6154
vn -0.8545 0.1438 0.4992
vn -0.8032 -0.1507 0.5763
vn -0.4605 0.2886 0.8394
vn -0.9778 -0.0724 0.1965
vn -0.8829 0.2684 0.3852
vn -0.9596 -0.0988 0.2636
vn -0.8774 -0.3618 0.3151
vn -0.8668 0.2416 0.4361
vn -0.8715 0.0934 0.4814
vn -0.9288 -0.3705 0.0100
vn -0.9903 0.1287 -0.0522
vn -0.9270 -0.3561 -0.1176
vn -0.9054 0.4123 0.1014
vn -0.2716 0.7046 0.6556
vn -0.2306 0.7906 0.5672
vn -0.5581 0.8097 -0.1814
vn -0.3040 0.9292 0.2104
vn -0.7426 0.5976 -0.3025
vn -0.9564 0.2884 -0.0467
vn -0.3412 0.8214 0.4570
vn -0.3433 0.6972 0.6294
vn 0.2696 0.9536 0.1339
vn -0.8172 0.4235 0.3910
vn -0.5434 0.3400 0.7676
vn -0.6392 0.6098 -0.4686
vn -0.7236 0.6815 0.1094
vn 0.0007 0.8036 -0.5952
vn -0.9070 -0.4210 -0.0021
vn -0.9443 0.1770 0.2774
vn -0.6063 0.5364 0.5871
vn -0.3005 0.1772 0.9372
vn -0.8182 -0.1647 0.5509
vn -0.3650 -0.5660 0.7392
vn -0.4489 0.8679 0.2126
vn -0.7514 0.5909 0.2937
vn -0.6021 0.7913 -0.1068
vn -0.6079 0.7938 0.0171
vn -0.8753 0.4827 -0.0290
vn -0.8627 0.4501 -0.2303
vn -0.9480 -0.3121 0.0622
vn -0.9318 -0.3347 -0.1401
vn -0.9347 -0.1817 0.3055
vn -0.4310 -0.8973 -0.0955
vn -0.5277 -0.8473 0.0608
vn -0.3050 -0.9390 0.1590
vn -0.1675 -0.9723 -0.1628
vn -0.9275 -0.2891 0.2369
vn -0.8758 -0.3883 -0.2867
vn -0.7288 -0.5194 0.4462
vn -0.4379 0.0382 0.8982
vn -0.9879 -0.1462 0.0522
vn -0.9519 0.1550 0.2644
vn -0.7970 0.6021 -0.0477
vn -0.7982 0.5963 0.0856
vn -0.9139 0.1443 0.3794
vn -0.6487 0.1843 0.7384
vn -0.8090 0.3828 0.4461
vn -0.8438 -0.4647 0.2686
vn -0.9970 0.0659 -0.0398
vn -0.9878 -0.1441 -0.0593
vn -0.7439 0.0722 0.6643
vn -0.8998 -0.4067 -0.1583
vn -0.2323 -0.1166 0.9656
vn -0.9055 0.4243 0.0073
vn -0.9903 0.0507 -0.1291
vn -0.9850 -0.1381 0.1040
vn -0.5080 -0.7682 0.3896
vn -0.6553 -0.7538 -0.0496
vn -0.4554 -0.6471 0.6115
vn -0.1880 -0.5811 0.7919
vn -0.7149 -0.6643 -0.2181
vn -0.4428 -0.7713 0.4572
vn -0.6470 -0.7510 -0.1324
vn -0.4865 -0.7732 -0.4067
vn 0.0757 -0.9955 -0.0566
vn 0.5023 -0.8598 -0.0924
vn -0.0184 -0.9581 0.2860
vn -0.0566 -0.8560 0.5139
vn 0.1687 -0.8686 0.4658
vn 0.4210 -0.8749 0.2395
vn 0.6404 -0.7679 0.0134
vn 0.8815 -0.4632 0.0920
vn 0.9526 -0.3025 0.0314
vn 0.4066 -0.6255 -0.6659
vn 0.2715 -0.8946 -0.3548
vn -0.1165 -0.6500 -0.7510
vn -0.1302 -0.7257 -0.6756
vn -0.2327 -0.9553 -0.1825
vn -0.3100 -0.8703 -0.3828
vn -0.4213 -0.9059 -0.0423
vn -0.1257 -0.7113 -0.6915
vn -0.1062 -0.6493 -0.7531
vn -0.2002 -0.8958 -0.3967
vn -0.2613 -0.9566 -0.1292
vn -0.3094 -0.9485 0.0683
vn -0.8241 -0.3163 0.4699
vn -0.5406 -0.4057 0.7370
vn -0.5888 -0.6512 0.4788
vn -0.6797 -0.7286 0.0844
vn -0.3355 -0.3479 0.8754
vn -0.2746 -0.7193 0.6381
vn 0.0519 -0.7099 0.7024
vn 0.0209 -0.3909 0.9202
vn 0.3887 -0.4127 0.8237
vn 0.3255 -0.6749 0.6622
vn 0.6411 -0.5774 0.5056
vn 0.6356 -0.4049 0.6573
vn -0.7706 -0.5672 -0.2906
vn -0.9539 -0.1577 -0.2555
vn -0.8722 -0.0220 -0.4887
vn -0.7071 -0.3100 -0.6355
vn 0.7950 -0.2348 0.5593
vn 0.8825 -0.2913 0.3694
vn 0.8981 0.2706 0.3467
vn 0.9416 0.2706 0.2002
vn 0.4963 0.8680 0.0167
vn 0.7498 0.6348 -0.1864
vn 0.3715 0.9182 -0.1376
vn 0.5910 0.5560 -0.5845
vn 0.7751 0.6262 -0.0841
vn 0.9124 0.2156 -0.3480
vn 0.9777 0.0499 -0.2037
vn 0.8774 -0.4478 0.1724
vn 0.6999 -0.6683 0.2520
vn 0.4174 -0.8504 0.3203
vn 0.1284 -0.8600 0.4939
vn -0.0723 -0.8679 0.4914
vn -0.2348 -0.8939 0.3818
vn -0.6260 -0.7469 0.2240
vn -0.7252 -0.6476 -0.2337
vn -0.5347 -0.4656 -0.7052
vn -0.4593 -0.4208 -0.7823
vn -0.2114 -0.8985 -0.3847
vn -0.2173 -0.6145 -0.7584
vn 0.0614 -0.9246 -0.3759
vn 0.0835 -0.6836 -0.7250
vn 0.3894 -0.8523 -0.3491
vn 0.3375 -0.6693 -0.6619
vn 0.6488 -0.6921 -0.3163
vn 0.5359 -0.5667 -0.6259
vn 0.8334 -0.4539 -0.3152
vn 0.6981 -0.3733 -0.6110
vn 0.7565 0.3874 -0.5269
vn 0.8429 0.4845 -0.2339
vn 0.7997 0.5659 -0.2006
vn 0.6541 0.5465 -0.5230
vn 0.6886 0.2809 -0.6685
vn 0.5373 0.5208 -0.6634
vn 0.5716 0.6214 -0.5358
vn 0.9114 0.4079 0.0537
vn 0.7412 0.5780 0.3414
vn 0.1645 0.4222 0.8915
vn 0.2072 0.7832 0.5863
vn -0.0066 -0.1625 0.9867
vn -0.2490 0.2771 0.9280
vn -0.5476 0.0010 0.8367
vn -0.7041 -0.0346 0.7092
vn -0.9354 0.2344 0.2649
vn -0.4663 0.6449 0.6055
vn -0.9653 0.2105 -0.1546
vn -0.1068 0.5743 -0.8117
vn -0.8510 0.1497 -0.5034
vn 0.0035 0.9732 0.2299
vn -0.7120 0.6609 0.2371
vn -0.8112 0.5092 -0.2876
vn -0.4783 0.7339 -0.4823
vn 0.6376 0.7702 -0.0191
vn 0.7735 0.6029 -0.1954
vn 0.0966 0.8353 -0.5412
vn 0.1920 0.9536 -0.2320
vn -0.5803 0.3494 -0.7356
usemtl Material_#115
s 1
f 1/1/1 2/2/2 4/3/3 3/4/4
f 6/5/5 32/6/6 31/7/7 5/8/8
f 7/9/9 34/10/10 33/11/11 20/12/12
f 9/13/13 35/14/14 34/10/10 7/9/9
f 12/15/15 9/13/13 7/9/9 11/16/16
f 11/16/16 7/9/9 20/12/12 19/17/17
f 213/18/18 5/8/8 14/19/19 13/20/20
f 15/21/21 16/22/22 4/3/3 2/2/2
f 17/23/23 5/8/8 31/7/7 30/24/24
f 18/25/25 14/19/19 5/8/8 17/23/23
f 21/26/26 3/4/4 32/6/6 33/11/11
f 213/18/18 13/20/20 19/17/17 20/12/12
f 22/27/27 1/1/1 3/4/4 21/26/26
f 21/26/26 8/28/28 23/29/29 22/27/27
f 8/28/28 10/30/30 24/31/31 23/29/29
f 10/30/30 35/14/14 36/32/32 24/31/31
f 9/13/13 12/15/15 26/33/33 25/34/34
f 12/15/15 11/16/16 27/35/35 26/33/33
f 11/16/16 19/17/17 28/36/36 27/35/35
f 19/17/17 13/20/20 29/37/37 28/36/36
f 14/19/19 18/25/25 29/37/37 13/20/20
f 32/6/6 3/4/4 4/3/3 31/7/7
f 8/28/28 21/26/26 33/11/11 34/10/10
f 10/30/30 8/28/28 34/10/10 35/14/14
f 31/7/7 4/3/3 16/22/22 30/24/24
f 6/5/5 20/12/12 33/11/11 32/6/6
f 35/14/14 9/13/13 25/34/34 36/32/32
f 37/38/38 38/39/39 36/32/32 25/34/34
f 39/40/40 24/31/31 36/32/32 38/39/39
f 40/41/41 23/29/29 24/31/31 39/40/40
f 41/42/42 22/27/27 23/29/29 40/41/41
f 42/43/43 1/1/1 22/27/27 41/42/42
f 44/44/44 42/45/43 41/46/42 43/47/45
f 46/48/46 44/44/44 43/47/45 45/49/47
f 47/50/48 2/2/2 1/1/1 42/43/43
f 42/45/43 44/44/44 48/51/49 47/52/48
f 44/44/44 46/48/46 48/51/49
f 49/53/50 50/54/51 47/52/48 48/51/49
f 48/51/49 46/48/46 51/55/52 49/53/50
f 52/56/53 53/57/54 51/55/52 46/48/46
f 46/48/46 45/49/47 54/58/55 52/56/53
f 55/59/56 56/60/57 54/58/55 45/49/47
f 55/59/56 45/49/47 43/47/45
f 58/61/58 54/58/55 56/60/57 57/62/59
f 59/63/60 52/56/53 54/58/55 58/61/58
f 60/64/61 49/53/50 51/55/52 53/57/54
f 43/47/45 41/46/42 61/65/62 55/59/56
f 62/66/63 56/60/57 55/59/56 61/65/62
f 61/67/62 41/42/42 40/41/41
f 63/68/64 64/69/65 40/41/41 39/40/40
f 62/70/63 61/67/62 40/41/41 64/69/65
f 65/71/66 57/62/59 56/60/57 62/66/63
f 67/72/67 58/61/58 57/62/59 66/73/68
f 57/62/59 65/71/66 66/73/68
f 68/74/69 59/63/60 58/61/58 67/72/67
f 70/75/70 15/21/21 2/2/2 69/76/71
f 47/50/48 50/77/51 69/76/71 2/2/2
f 71/78/72 72/79/73 50/80/51 49/81/50
f 73/82/74 74/83/75 72/79/73 71/78/72
f 75/84/76 76/85/77 71/78/72 49/81/50
f 49/81/50 60/86/61 75/84/76
f 77/87/78 78/88/79 75/84/76 60/86/61
f 80/89/80 78/88/79 77/87/78 79/90/81
f 78/88/79 80/89/80 76/85/77 75/84/76
f 82/91/82 80/89/80 79/90/81 81/92/83
f 83/93/84 76/85/77 80/89/80 82/91/82
f 76/85/77 83/93/84 73/82/74 71/78/72
f 84/94/85 85/95/86 82/91/82 81/92/83
f 86/96/87 83/93/84 82/91/82 85/95/86
f 83/93/84 86/96/87 74/83/75 73/82/74
f 85/95/86 84/94/85 87/97/88 86/96/87
f 89/98/89 86/96/87 87/97/88 88/99/90
f 90/100/91 74/83/75 86/96/87 89/98/89
f 91/101/92 72/79/73 74/83/75 90/100/91
f 50/80/51 72/79/73 91/101/92
f 91/101/92 69/102/71 50/80/51
f 91/101/92 90/100/91 92/103/93 69/102/71
f 90/100/91 89/98/89 93/104/94 92/103/93
f 94/105/95 95/106/96 89/107/89 88/108/90
f 96/109/97 93/110/94 89/107/89 95/106/96
f 97/111/98 98/112/99 93/110/94 96/109/97
f 100/113/100 93/110/94 98/112/99 99/114/101
f 92/115/93 93/116/94 100/117/100
f 100/117/100 99/118/101 101/119/102 92/115/93
f 101/119/102 70/75/70 69/76/71 92/115/93
f 102/120/103 103/121/104 99/114/101 98/112/99
f 101/119/102 99/118/101 103/122/104 70/75/70
f 98/112/99 97/111/98 104/123/105 102/120/103
f 95/106/96 94/105/95 105/124/106 96/109/97
f 106/125/107 107/126/108 96/109/97 105/124/106
f 109/127/109 96/109/97 107/126/108 108/128/110
f 110/129/111 97/111/98 96/109/97 109/127/109
f 111/130/112 104/123/105 97/111/98 110/129/111
f 113/131/113 103/121/104 102/120/103 112/132/114
f 102/120/103 104/123/105 112/132/114
f 104/123/105 111/130/112 112/132/114
f 114/133/115 70/75/70 103/122/104 113/134/113
f 107/126/108 106/125/107 115/135/116 108/128/110
f 117/136/117 108/128/110 115/135/116 116/137/118
f 118/138/119 109/127/109 108/128/110 117/136/117
f 119/139/120 110/129/111 109/127/109 118/138/119
f 119/139/120 111/130/112 110/129/111
f 120/140/121 112/132/114 111/130/112 119/139/120
f 120/140/121 119/139/120 118/138/119
f 118/138/119 117/136/117 121/141/122 120/140/121
f 117/136/117 116/137/118 122/142/123 121/141/122
f 124/143/124 122/142/123 116/137/118 123/144/125
f 125/145/126 126/146/127 124/143/124 123/144/125
f 127/147/128 128/148/129 126/149/127 125/150/126
f 121/141/122 124/143/124 126/146/127 120/140/121
f 129/151/130 112/132/114 120/140/121 126/146/127
f 129/151/130 113/131/113 112/132/114
f 126/149/127 128/148/129 130/152/131 129/153/130
f 129/153/130 130/152/131 114/133/115 113/134/113
f 131/154/132 15/21/21 70/75/70 114/133/115
f 114/133/115 130/152/131 131/154/132
f 133/155/133 128/148/129 127/147/128 132/156/134
f 134/157/135 130/152/131 128/148/129 133/155/133
f 135/158/136 131/154/132 130/152/131 134/157/135
f 136/159/137 15/21/21 131/154/132 135/158/136
f 136/159/137 16/22/22 15/21/21
f 140/160/138 139/161/139 138/162/140 137/163/141
f 141/164/142 142/165/143 138/162/140 139/161/139
f 144/166/144 142/165/143 141/164/142 143/167/145
f 145/168/146 146/169/147 144/166/144 143/167/145
f 148/170/148 146/169/147 145/168/146 147/171/149
f 149/172/150 150/173/151 140/160/138 137/163/141
f 152/174/152 150/173/151 149/172/150 151/175/153
f 149/176/150 137/177/141 135/158/136 134/157/135
f 151/178/153 149/176/150 134/157/135 133/155/133
f 137/177/141 138/179/140 136/159/137 135/158/136
f 16/22/22 136/159/137 138/179/140 142/180/143
f 142/180/143 144/181/144 30/24/24 16/22/22
f 30/24/24 144/181/144 146/182/147 17/23/23
f 153/183/154 154/184/155 148/170/148 147/171/149
f 155/185/156 156/186/157 154/184/155 153/183/154
f 157/187/158 158/188/159 156/186/157 155/185/156
f 17/23/23 146/182/147 148/189/148
f 154/190/155 18/25/25 17/23/23 148/189/148
f 156/191/157 29/37/37 18/25/25 154/190/155
f 159/192/160 160/193/161 158/188/159 157/187/158
f 157/187/158 155/185/156 161/194/162 159/192/160
f 163/195/163 161/194/162 155/185/156 162/196/164
f 155/185/156 153/183/154 164/197/165 162/196/164
f 153/183/154 147/171/149 165/198/166 164/197/165
f 147/171/149 145/168/146 166/199/167 165/198/166
f 145/168/146 143/167/145 167/200/168 166/199/167
f 143/167/145 141/164/142 168/201/169 167/200/168
f 141/164/142 139/161/139 169/202/170 168/201/169
f 139/161/139 140/160/138 170/203/171 169/202/170
f 140/160/138 150/173/151 171/204/172 170/203/171
f 150/173/151 152/174/152 172/205/173 171/204/172
f 133/155/133 132/156/134 173/206/174 151/178/153
f 173/207/174 152/174/152 151/175/153
f 175/208/175 171/204/172 172/205/173 174/209/176
f 170/203/171 171/204/172 175/208/175 169/202/170
f 177/210/177 175/208/175 174/209/176 176/211/178
f 179/212/179 177/210/177 176/211/178 178/213/180
f 181/214/181 179/212/179 178/213/180 180/215/182
f 183/216/183 181/214/181 180/215/182 182/217/184
f 182/217/184 163/195/163 162/196/164 183/216/183
f 162/196/164 164/197/165 183/216/183
f 164/197/165 165/198/166 181/214/181 183/216/183
f 165/198/166 166/199/167 179/212/179 181/214/181
f 166/199/167 167/200/168 177/210/177 179/212/179
f 168/201/169 175/208/175 177/210/177 167/200/168
f 168/201/169 169/202/170 175/208/175
f 29/37/37 156/191/157 158/218/159 28/36/36
f 184/219/185 185/220/186 28/36/36 158/218/159
f 27/35/35 28/36/36 185/220/186
f 187/221/187 185/220/186 184/219/185 186/222/188
f 27/35/35 185/220/186 187/221/187 26/33/33
f 187/221/187 186/222/188 38/39/39 37/38/38
f 25/34/34 26/33/33 187/221/187 37/38/38
f 158/218/159 160/223/161 188/224/189 184/219/185
f 189/225/190 186/222/188 184/219/185 188/224/189
f 190/226/191 38/39/39 186/222/188 189/225/190
f 63/68/64 39/40/40 38/39/39 190/226/191
f 191/227/192 192/228/193 63/229/64 190/230/191
f 194/231/194 63/229/64 192/228/193 193/232/195
f 196/233/196 63/229/64 194/231/194 195/234/197
f 196/233/196 64/235/65 63/229/64
f 197/236/198 62/237/63 64/235/65 196/233/196
f 197/238/198 65/71/66 62/66/63
f 197/236/198 196/233/196 198/239/199 65/240/66
f 198/239/199 196/233/196 195/234/197
f 199/241/200 66/242/68 65/240/66 198/239/199
f 198/239/199 195/234/197 200/243/201 199/241/200
f 200/243/201 195/234/197 194/231/194 193/232/195
f 201/244/202 67/245/67 66/242/68 199/241/200
f 203/246/203 67/245/67 201/244/202 202/247/204
f 203/248/203 68/74/69 67/72/67
f 204/249/205 205/250/206 200/243/201 193/232/195
f 199/241/200 200/243/201 205/250/206
f 205/250/206 201/244/202 199/241/200
f 206/251/207 202/247/204 201/244/202 205/250/206
f 205/250/206 204/249/205 207/252/208 206/251/207
f 193/232/195 192/228/193 208/253/209 204/249/205
f 192/228/193 191/227/192 209/254/210 208/253/209
f 209/254/210 191/227/192 190/230/191
f 210/255/211 211/256/212 208/253/209 209/254/210
f 204/249/205 208/253/209 211/256/212
f 210/255/211 207/252/208 204/249/205 211/256/212
f 212/257/213 202/247/204 206/251/207 207/252/208
f 207/252/208 210/255/211 212/257/213
f 20/12/12 6/5/5 213/18/18
f 213/18/18 6/5/5 5/8/8
