# Blender v2.78 (sub 0) OBJ File: 'brick.blend'
# www.blender.org
mtllib brick2.mtl
o Cube
v 1.000000 0.000582 0.008219
v 1.000000 0.000582 1.008218
v 0.000000 0.000582 1.008218
v 0.000000 0.000582 0.008218
v 1.000000 1.000582 0.008219
v 0.999999 1.000582 1.008218
v 0.000000 1.000582 1.008218
v 0.000000 1.000582 0.008219
vt 0.6667 0.0000
vt 0.6667 0.3333
vt 0.3333 0.3333
vt 0.3333 0.0000
vt 1.0000 0.0000
vt 1.0000 0.3333
vt 0.6667 0.3333
vt 0.6667 0.0000
vt 0.3333 0.0000
vt 0.3333 0.3333
vt 0.0000 0.3333
vt 0.0000 0.0000
vt 0.3333 1.0000
vt 0.0000 1.0000
vt 0.0000 0.6667
vt 0.3333 0.6667
vt 0.0000 0.3333
vt 0.3333 0.3333
vt 0.6667 0.3333
vt 0.6667 0.6667
vt 0.3333 0.6667
vn 0.0000 -1.0000 -0.0000
vn 0.0000 1.0000 0.0000
vn 1.0000 -0.0000 0.0000
vn -0.0000 -0.0000 1.0000
vn -1.0000 -0.0000 -0.0000
vn 0.0000 0.0000 -1.0000
usemtl texture
s off
f 1/1/1 2/2/1 3/3/1 4/4/1
f 5/5/2 8/6/2 7/7/2 6/8/2
f 1/9/3 5/10/3 6/11/3 2/12/3
f 2/13/4 6/14/4 7/15/4 3/16/4
f 3/16/5 7/15/5 8/17/5 4/18/5
f 5/10/6 1/19/6 4/20/6 8/21/6
