# Blender v2.78 (sub 0) OBJ File: 'groundTile2.blend'
# www.blender.org
mtllib groundTile2.mtl
o Cube
v 1.006590 1.004962 0.003519
v 1.006590 0.004963 0.003519
v 0.006591 0.004963 0.003519
v 0.006591 1.004962 0.003519
v 0.947436 0.945807 0.081375
v 0.947435 0.064117 0.081375
v 0.065745 0.064117 0.081375
v 0.065745 0.945808 0.081375
v 1.006590 1.004962 0.060445
v 1.006590 0.004962 0.060445
v 0.006591 1.004962 0.060445
v 0.006590 0.004963 0.060445
vt -0.0013 0.9980
vt 0.9904 0.9980
vt 0.9904 1.6068
vt -0.0013 1.6068
vt 0.9317 0.0386
vt 0.9317 0.9620
vt 0.0573 0.9620
vt 0.0573 0.0386
vt 1.0468 0.9980
vt 0.9904 0.9980
vt 0.9904 0.0026
vt 1.0468 0.0026
vt 1.1597 0.9980
vt 1.1033 0.9980
vt 1.1033 0.0026
vt 1.1597 0.0026
vt 1.2162 0.9980
vt 1.1597 0.9980
vt 1.1597 0.0026
vt 1.2162 0.0026
vt 1.0468 0.0026
vt 1.1033 0.0026
vt 1.1033 0.9980
vt 1.0468 0.9980
vt -0.0013 0.0026
vt 0.9904 0.0026
vt 0.9904 0.9980
vt -0.0013 0.9980
vn 0.0000 0.0000 -1.0000
vn 0.0000 -0.0000 1.0000
vn 1.0000 -0.0000 -0.0000
vn -0.0000 -1.0000 -0.0000
vn -1.0000 0.0000 -0.0000
vn 0.0000 1.0000 0.0000
vn 0.3336 -0.0000 0.9427
vn 0.0000 0.3336 0.9427
vn -0.0000 -0.3336 0.9427
vn -0.3336 0.0000 0.9427
usemtl Material
s off
f 1/1/1 2/2/1 3/3/1 4/4/1
f 5/5/2 8/6/2 7/7/2 6/8/2
f 1/9/3 9/10/3 10/11/3 2/12/3
f 2/13/4 10/14/4 12/15/4 3/16/4
f 3/17/5 12/18/5 11/19/5 4/20/5
f 9/21/6 1/22/6 4/23/6 11/24/6
f 5/5/7 6/8/7 10/25/7 9/26/7
f 8/6/8 5/5/8 9/26/8 11/27/8
f 6/8/9 7/7/9 12/28/9 10/25/9
f 7/7/10 8/6/10 11/27/10 12/28/10
