# Blender v2.78 (sub 0) OBJ File: 'bonus.blend'
# www.blender.org
mtllib speedUp.mtl
o Cube
v -0.395006 -0.311833 -0.286151
v 0.404872 -0.321103 -0.275710
v 0.404872 0.277135 0.255431
v -0.395006 0.286405 0.244990
v -0.394971 -0.310506 -0.287646
v 0.404907 -0.319775 -0.277205
v 0.404907 0.278463 0.253935
v -0.394971 0.287733 0.243495
vt 0.0000 0.0000
vt 1.0000 0.0000
vt 1.0000 1.0000
vt 0.0000 1.0000
vt 0.0000 0.0000
vt 1.0000 0.0000
vt 1.0000 1.0000
vt 0.0000 1.0000
vt 1.0000 0.0000
vt 1.0000 1.0000
vt 0.0000 1.0000
vt 0.0000 0.0000
vt 1.0000 0.0000
vt 0.0000 1.0000
vt 0.0000 0.0000
vt 1.0000 0.0000
vt 1.0000 1.0000
vt 1.0000 0.0000
vt 1.0000 1.0000
vt 0.0000 1.0000
vn -0.0175 -0.6638 0.7477
vn 0.0175 0.6638 -0.7477
vn 0.0000 -0.7478 -0.6639
vn 0.9998 -0.0116 0.0131
vn -0.0000 0.7478 0.6640
vn -0.9998 0.0117 -0.0131
usemtl Material
s off
f 1/1/1 2/2/1 3/3/1 4/4/1
f 5/5/2 8/6/2 7/7/2 6/8/2
f 1/1/3 5/9/3 6/10/3 2/11/3
f 2/12/4 6/13/4 7/7/4 3/14/4
f 3/15/5 7/16/5 8/17/5 4/4/5
f 5/5/6 1/18/6 4/19/6 8/20/6
