# Blender v2.78 (sub 0) OBJ File: ''
# www.blender.org
mtllib wall.mtl
o KillerFrostIceBlock
v 1.022472 0.695993 0.758840
v 0.973480 0.913655 0.489012
v 0.983475 0.921686 0.757961
v 1.018181 0.695763 0.492110
v 0.996005 0.429374 0.756907
v 1.030282 0.163289 0.757398
v 0.953480 -0.016829 0.945593
v 0.995463 -0.056820 0.753593
v 0.763842 -0.061323 0.756790
v 0.761811 -0.061880 0.987582
v 0.499582 -0.086883 0.759634
v 0.766323 0.162135 1.023114
v 0.997873 0.163956 0.979576
v 0.961182 0.429299 0.971159
v 0.763668 0.429704 1.014843
v 0.499475 0.161950 1.016270
v 0.499955 -0.081299 0.999177
v 0.232261 0.162246 1.030321
v 0.233032 -0.083537 1.008513
v 0.233135 -0.101860 0.759411
v 0.004412 -0.018688 0.961942
v -0.009917 0.164673 0.996483
v 0.231136 0.429030 1.047865
v -0.023066 0.429053 1.014426
v -0.012801 0.693716 1.005583
v 0.232220 0.696269 1.029791
v 0.499406 0.696149 1.041891
v 0.764838 0.696867 1.016491
v 0.499522 0.429117 1.006609
v 0.499492 0.931978 1.004709
v 0.765309 0.696631 -0.050536
v 0.498761 0.904677 -0.016166
v 0.766616 0.932241 -0.014281
v 0.977023 0.903257 0.022526
v 0.968508 0.692484 -0.009238
v 0.232284 0.429181 -0.022391
v 0.001565 0.693156 -0.002720
v 0.232897 0.695708 -0.035009
v 0.498309 0.698640 -0.060504
v 0.762691 0.432720 -0.077142
v 1.000120 0.428939 -0.014251
v 0.498534 0.429423 -0.043132
v 0.232177 0.161841 -0.026886
v 0.765738 0.164152 -0.043700
v 0.499651 0.162272 -0.041674
v 0.762929 -0.059661 0.027109
v 0.007467 -0.051073 -0.000172
v 0.232634 -0.074544 -0.007705
v 0.765781 0.940782 0.491936
v 0.763368 0.957333 0.226142
v 0.501538 0.991525 0.491867
v 0.499453 0.960216 0.225232
v 0.232173 0.966823 0.492206
v 0.232479 0.968749 0.224688
v 0.765988 0.961699 0.759473
v 0.499524 0.980398 0.759459
v 0.232372 0.968125 0.759806
v 0.235506 0.913051 0.999419
v 0.766001 0.945941 1.003207
v 0.232921 0.922230 -0.013872
v 0.033132 0.877315 0.039445
v -0.032845 0.696055 0.759465
v -0.020377 0.696027 0.492294
v -0.022848 0.428755 0.759217
v -0.024458 0.428314 0.492476
v -0.044621 0.162312 0.758743
v -0.037851 0.161944 0.492298
v 0.007135 -0.062914 0.758060
v 0.004864 0.923544 0.758043
v 0.053434 0.888902 0.952880
v 0.233167 -0.070232 0.493256
v 0.002190 -0.070177 0.492041
v -0.036238 0.161436 0.225329
v -0.001541 0.428160 0.225149
v -0.018664 0.695243 0.225541
v -0.009575 0.427948 -0.007139
v -0.013265 0.161141 -0.027573
v 0.034006 0.910393 0.232788
v -0.006652 0.929283 0.492350
v 0.232284 -0.102665 0.225191
v 0.501232 -0.067951 0.007291
v 0.499563 -0.101992 0.225742
v 0.765693 -0.093644 0.226558
v 0.953484 -0.020617 0.046483
v 0.993713 -0.066226 0.227075
v 0.766481 -0.097862 0.492168
v 1.008565 -0.079118 0.492301
v 0.500486 -0.064318 0.492986
v -0.012777 -0.069862 0.224932
v 1.019801 0.161556 0.492433
v 1.045436 0.161383 0.225481
v 1.048798 0.428108 0.225705
v 1.027099 0.428813 0.491857
v 1.021337 0.695166 0.224662
v 0.994298 0.163998 -0.002165
v 0.986130 0.929403 0.222175
v 0.958411 0.881495 0.960127
v 0.983111 0.694536 0.979945
vt 0.9160 0.3804
vt 0.9985 0.2573
vt 0.9985 0.3804
vt 0.9160 0.2573
vt 0.8335 0.3804
vt 0.7510 0.3804
vt 0.6685 0.5034
vt 0.6685 0.3804
vt 0.5859 0.3804
vt 0.5859 0.5034
vt 0.5034 0.3804
vt 0.5859 0.6265
vt 0.6685 0.6265
vt 0.6685 0.7495
vt 0.5859 0.7495
vt 0.5034 0.6265
vt 0.5034 0.5034
vt 0.4214 0.6265
vt 0.4214 0.5034
vt 0.4214 0.3804
vt 0.3389 0.5034
vt 0.3389 0.6265
vt 0.4214 0.7495
vt 0.3389 0.7495
vt 0.3389 0.8724
vt 0.4214 0.8724
vt 0.5034 0.8724
vt 0.5859 0.8724
vt 0.5034 0.7495
vt 0.5034 0.9954
vt 0.0883 0.8750
vt 0.1666 0.9950
vt 0.0883 0.9950
vt 0.0100 0.9950
vt 0.0100 0.8750
vt 0.2450 0.7550
vt 0.3232 0.8750
vt 0.2450 0.8750
vt 0.1666 0.8750
vt 0.0883 0.7550
vt 0.0100 0.7550
vt 0.1666 0.7550
vt 0.2450 0.6350
vt 0.0883 0.6350
vt 0.1666 0.6350
vt 0.0883 0.5149
vt 0.3232 0.5149
vt 0.2450 0.5149
vt 0.7627 0.7549
vt 0.7627 0.6348
vt 0.8408 0.7549
vt 0.8408 0.6348
vt 0.9194 0.7549
vt 0.9194 0.6348
vt 0.7627 0.8749
vt 0.8408 0.8749
vt 0.9194 0.8749
vt 0.9194 0.9949
vt 0.7627 0.9949
vt 0.9194 0.5149
vt 0.9976 0.5149
vt 0.0915 0.3804
vt 0.0915 0.2573
vt 0.1740 0.3804
vt 0.1740 0.2573
vt 0.2563 0.3804
vt 0.2563 0.2573
vt 0.3389 0.3804
vt 0.0090 0.3804
vt 0.0090 0.5034
vt 0.4214 0.2573
vt 0.3389 0.2573
vt 0.2563 0.1348
vt 0.1740 0.1348
vt 0.0915 0.1348
vt 0.1740 0.0117
vt 0.2563 0.0117
vt 0.0090 0.1348
vt 0.0090 0.2573
vt 0.4214 0.1348
vt 0.5034 0.0117
vt 0.5034 0.1348
vt 0.5859 0.1348
vt 0.6685 0.0117
vt 0.6685 0.1348
vt 0.5859 0.2573
vt 0.6685 0.2573
vt 0.5034 0.2573
vt 0.3389 0.1348
vt 0.7510 0.2573
vt 0.7510 0.1348
vt 0.8335 0.1348
vt 0.8335 0.2573
vt 0.9160 0.1348
vt 0.7510 0.0117
vt 0.9985 0.1348
vt 0.9985 0.5034
vt 0.9160 0.5034
vt 0.8335 0.5034
vt 0.7510 0.5034
vt 0.3389 0.9954
vt 0.4214 0.9954
vt 0.5859 0.9954
vt 0.6685 0.9954
vt 0.6685 0.8724
vt 0.3232 0.7550
vt 0.3232 0.9950
vt 0.2450 0.9950
vt 0.3232 0.6350
vt 0.0100 0.6350
vt 0.0100 0.5149
vt 0.1666 0.5149
vt 0.6841 0.7549
vt 0.6841 0.6348
vt 0.6841 0.8749
vt 0.9976 0.8749
vt 0.9976 0.7549
vt 0.9976 0.9949
vt 0.8408 0.9949
vt 0.6841 0.9949
vt 0.6841 0.5149
vt 0.7627 0.5149
vt 0.8408 0.5149
vt 0.9976 0.6348
vt 0.0915 0.5034
vt 0.1740 0.5034
vt 0.2563 0.5034
vt 0.3389 0.0117
vt 0.0915 0.0117
vt 0.0090 0.0117
vt 0.4214 0.0117
vt 0.5859 0.0117
vt 0.8335 0.0117
vt 0.9160 0.0117
vt 0.9985 0.0117
vn 0.9967 0.0384 0.0720
vn 0.6920 0.7219 0.0028
vn 0.7034 0.7058 0.0842
vn 0.9948 0.1012 0.0143
vn 0.9921 0.0305 0.1221
vn 0.9952 -0.0452 0.0874
vn 0.5622 -0.6100 0.5584
vn 0.6698 -0.7214 0.1759
vn 0.0578 -0.9961 0.0668
vn 0.1766 -0.7360 0.6535
vn 0.0687 -0.9969 -0.0373
vn 0.0922 -0.0678 0.9934
vn 0.7316 -0.0810 0.6769
vn 0.7061 0.0178 0.7079
vn 0.1092 -0.0028 0.9940
vn 0.0231 -0.0275 0.9994
vn 0.0678 -0.7246 0.6858
vn -0.0450 -0.0737 0.9963
vn -0.1405 -0.7081 0.6920
vn -0.0789 -0.9968 -0.0125
vn -0.6459 -0.5371 0.5425
vn -0.7070 -0.1074 0.6990
vn 0.0132 -0.0040 0.9999
vn -0.7497 -0.0150 0.6616
vn -0.7127 0.2041 0.6711
vn -0.0672 0.0994 0.9928
vn 0.0111 0.0260 0.9996
vn 0.1321 0.0382 0.9905
vn 0.0236 -0.0354 0.9991
vn -0.0313 0.6829 0.7299
vn 0.1115 0.1296 -0.9853
vn -0.0055 0.6804 -0.7328
vn 0.0698 0.7288 -0.6812
vn 0.6306 0.5544 -0.5431
vn 0.6794 0.0965 -0.7274
vn -0.0790 -0.0061 -0.9969
vn -0.7157 0.1202 -0.6880
vn -0.1201 0.0513 -0.9914
vn -0.0496 0.0945 -0.9943
vn 0.0783 -0.0384 -0.9962
vn 0.7268 0.0152 -0.6867
vn -0.0865 -0.0449 -0.9952
vn -0.0270 -0.0474 -0.9985
vn 0.0781 -0.1860 -0.9794
vn -0.0190 -0.1186 -0.9928
vn 0.1260 -0.7506 -0.6486
vn -0.5626 -0.5749 -0.5941
vn -0.0192 -0.6970 -0.7168
vn 0.1588 0.9873 -0.0089
vn 0.0793 0.9950 -0.0613
vn 0.0126 0.9995 -0.0303
vn 0.0101 0.9884 -0.1515
vn -0.1205 0.9925 -0.0190
vn -0.1236 0.9883 -0.0895
vn 0.1538 0.9875 0.0333
vn -0.0132 0.9949 0.1004
vn -0.1181 0.9870 0.1094
vn -0.1582 0.6588 0.7355
vn 0.1788 0.6941 0.6973
vn -0.1433 0.6677 -0.7305
vn -0.6442 0.5603 -0.5206
vn -0.9954 0.0867 0.0409
vn -0.9976 0.0627 -0.0289
vn -0.9995 0.0210 0.0228
vn -0.9991 0.0268 -0.0338
vn -0.9969 -0.0622 0.0492
vn -0.9982 -0.0567 -0.0190
vn -0.6588 -0.7500 0.0589
vn -0.7183 0.6813 0.1414
vn -0.5461 0.6158 0.5680
vn -0.0067 -0.9996 0.0277
vn -0.6551 -0.7541 0.0458
vn -0.9996 -0.0095 -0.0266
vn -0.9989 0.0373 -0.0295
vn -0.9945 0.0918 -0.0513
vn -0.7323 0.0641 -0.6780
vn -0.6641 -0.0447 -0.7463
vn -0.7049 0.7031 -0.0933
vn -0.7471 0.6623 -0.0565
vn -0.0430 -0.9989 -0.0160
vn 0.0417 -0.7172 -0.6957
vn 0.0211 -0.9997 -0.0113
vn 0.0681 -0.9941 -0.0850
vn 0.5386 -0.6054 -0.5860
vn 0.6719 -0.7238 -0.1569
vn -0.0249 -0.9985 0.0484
vn 0.7148 -0.6993 0.0104
vn -0.0045 -0.9993 0.0361
vn -0.7235 -0.6892 -0.0398
vn 0.9975 -0.0678 0.0183
vn 0.9901 -0.1228 -0.0683
vn 0.9972 0.0428 -0.0620
vn 0.9970 0.0312 0.0707
vn 0.9921 0.1029 -0.0714
vn 0.6831 -0.1762 -0.7088
vn 0.6896 0.7238 -0.0254
vn 0.6269 0.5181 0.5820
vn 0.7097 0.0400 0.7034
usemtl KillerFrostIceBlock
s 1
f 1/1/1 2/2/2 3/3/3
f 2/2/2 1/1/1 4/4/4
f 5/5/5 4/4/4 1/1/1
f 6/6/6 7/7/7 8/8/8
f 7/7/7 9/9/9 8/8/8
f 10/10/10 9/9/9 7/7/7
f 10/10/10 11/11/11 9/9/9
f 7/7/7 12/12/12 10/10/10
f 12/12/12 7/7/7 13/13/13
f 14/14/14 12/12/12 13/13/13
f 15/15/15 12/12/12 14/14/14
f 15/15/15 16/16/16 12/12/12
f 16/16/16 10/10/10 12/12/12
f 10/10/10 16/16/16 17/17/17
f 18/18/18 17/17/17 16/16/16
f 17/17/17 18/18/18 19/19/19
f 17/17/17 11/11/11 10/10/10
f 17/17/17 20/20/20 11/11/11
f 19/19/19 20/20/20 17/17/17
f 21/21/21 20/20/20 19/19/19
f 18/18/18 21/21/21 19/19/19
f 22/22/22 21/21/21 18/18/18
f 23/23/23 22/22/22 18/18/18
f 24/24/24 22/22/22 23/23/23
f 23/23/23 25/25/25 24/24/24
f 25/25/25 23/23/23 26/26/26
f 27/27/27 15/15/15 28/28/28
f 15/15/15 27/27/27 29/29/29
f 26/26/26 29/29/29 27/27/27
f 29/29/29 26/26/26 23/23/23
f 18/18/18 29/29/29 23/23/23
f 29/29/29 18/18/18 16/16/16
f 16/16/16 15/15/15 29/29/29
f 28/28/28 30/30/30 27/27/27
f 14/14/14 28/28/28 15/15/15
f 31/31/31 32/32/32 33/33/33
f 34/34/34 31/31/31 33/33/33
f 31/31/31 34/34/34 35/35/35
f 36/36/36 37/37/37 38/38/38
f 38/38/38 32/32/32 39/39/39
f 32/32/32 31/31/31 39/39/39
f 40/40/40 39/39/39 31/31/31
f 35/35/35 40/40/40 31/31/31
f 40/40/40 35/35/35 41/41/41
f 42/42/42 43/43/43 36/36/36
f 38/38/38 42/42/42 36/36/36
f 42/42/42 38/38/38 39/39/39
f 39/39/39 40/40/40 42/42/42
f 44/44/44 42/42/42 40/40/40
f 42/42/42 44/44/44 45/45/45
f 43/43/43 42/42/42 45/45/45
f 41/41/41 44/44/44 40/40/40
f 46/46/46 45/45/45 44/44/44
f 47/47/47 43/43/43 48/48/48
f 49/49/49 50/50/50 51/51/51
f 51/51/51 50/50/50 52/52/52
f 52/52/52 53/53/53 51/51/51
f 53/53/53 52/52/52 54/54/54
f 51/51/51 55/55/55 49/49/49
f 55/55/55 51/51/51 56/56/56
f 53/53/53 56/56/56 51/51/51
f 56/56/56 53/53/53 57/57/57
f 58/58/58 56/56/56 57/57/57
f 56/56/56 59/59/59 55/55/55
f 52/52/52 60/60/60 54/54/54
f 61/61/61 54/54/54 60/60/60
f 62/62/62 63/63/63 64/64/64
f 64/64/64 63/63/63 65/65/65
f 64/64/64 65/65/65 66/66/66
f 66/66/66 65/65/65 67/67/67
f 66/66/66 67/67/67 68/68/68
f 69/69/69 63/63/63 62/62/62
f 62/62/62 70/70/70 69/69/69
f 21/21/21 66/66/66 68/68/68
f 20/20/20 21/21/21 68/68/68
f 71/71/71 68/68/68 72/72/72
f 68/68/68 67/67/67 72/72/72
f 67/67/67 73/73/73 72/72/72
f 67/67/67 74/74/74 73/73/73
f 65/65/65 74/74/74 67/67/67
f 65/65/65 75/75/75 74/74/74
f 75/75/75 65/65/65 63/63/63
f 73/73/73 76/76/76 77/77/77
f 76/76/76 73/73/73 74/74/74
f 63/63/63 78/78/78 75/75/75
f 79/79/79 78/78/78 63/63/63
f 63/63/63 69/69/69 79/79/79
f 80/80/80 81/81/81 82/82/82
f 83/83/83 84/84/84 85/85/85
f 86/86/86 85/85/85 87/87/87
f 85/85/85 86/86/86 83/83/83
f 88/88/88 83/83/83 86/86/86
f 83/83/83 88/88/88 82/82/82
f 71/71/71 82/82/82 88/88/88
f 82/82/82 71/71/71 80/80/80
f 72/72/72 80/80/80 71/71/71
f 80/80/80 72/72/72 89/89/89
f 72/72/72 73/73/73 89/89/89
f 68/68/68 71/71/71 20/20/20
f 71/71/71 11/11/11 20/20/20
f 11/11/11 71/71/71 88/88/88
f 11/11/11 88/88/88 9/9/9
f 9/9/9 88/88/88 86/86/86
f 9/9/9 86/86/86 8/8/8
f 8/8/8 86/86/86 87/87/87
f 90/90/90 8/8/8 87/87/87
f 85/85/85 90/90/90 87/87/87
f 90/90/90 85/85/85 91/91/91
f 92/92/92 90/90/90 91/91/91
f 90/90/90 92/92/92 93/93/93
f 94/94/94 93/93/93 92/92/92
f 93/93/93 94/94/94 4/4/4
f 4/4/4 5/5/5 93/93/93
f 6/6/6 93/93/93 5/5/5
f 93/93/93 6/6/6 90/90/90
f 8/8/8 90/90/90 6/6/6
f 85/85/85 84/84/84 91/91/91
f 91/91/91 84/84/84 95/95/95
f 95/95/95 92/92/92 91/91/91
f 2/2/2 94/94/94 96/96/96
f 4/4/4 94/94/94 2/2/2
f 97/97/97 1/1/1 3/3/3
f 98/98/98 1/1/1 97/97/97
f 14/99/14 1/1/1 98/98/98
f 1/1/1 14/99/14 5/5/5
f 14/99/14 6/6/6 5/5/5
f 13/100/13 6/6/6 14/99/14
f 7/7/7 6/6/6 13/100/13
f 26/26/26 70/101/70 25/25/25
f 70/101/70 26/26/26 58/102/58
f 27/27/27 58/102/58 26/26/26
f 58/102/58 27/27/27 30/30/30
f 30/30/30 28/28/28 59/103/59
f 59/103/59 28/28/28 97/104/97
f 97/104/97 28/28/28 98/105/98
f 28/28/28 14/14/14 98/105/98
f 37/37/37 36/36/36 76/106/76
f 61/107/61 38/38/38 37/37/37
f 38/38/38 61/107/61 60/108/60
f 32/32/32 38/38/38 60/108/60
f 76/106/76 43/43/43 77/109/77
f 43/43/43 76/106/76 36/36/36
f 44/44/44 41/41/41 95/110/95
f 84/111/84 44/44/44 95/110/95
f 44/44/44 84/111/84 46/46/46
f 45/45/45 46/46/46 81/112/81
f 81/112/81 43/43/43 45/45/45
f 43/43/43 81/112/81 48/48/48
f 43/43/43 47/47/47 77/109/77
f 50/50/50 2/113/2 96/114/96
f 2/113/2 55/55/55 3/115/3
f 55/55/55 2/113/2 49/49/49
f 2/113/2 50/50/50 49/49/49
f 69/116/69 53/53/53 79/117/79
f 57/57/57 53/53/53 69/116/69
f 70/118/70 57/57/57 69/116/69
f 58/58/58 57/57/57 70/118/70
f 30/119/30 56/56/56 58/58/58
f 59/59/59 56/56/56 30/119/30
f 97/120/97 55/55/55 59/59/59
f 55/55/55 97/120/97 3/115/3
f 34/121/34 50/50/50 96/114/96
f 50/50/50 34/121/34 33/122/33
f 32/123/32 50/50/50 33/122/33
f 50/50/50 32/123/32 52/52/52
f 60/60/60 52/52/52 32/123/32
f 54/54/54 61/61/61 78/124/78
f 78/124/78 53/53/53 54/54/54
f 53/53/53 78/124/78 79/117/79
f 70/70/70 62/62/62 25/125/25
f 64/64/64 25/125/25 62/62/62
f 25/125/25 64/64/64 24/126/24
f 24/126/24 64/64/64 22/127/22
f 22/127/22 64/64/64 66/66/66
f 22/127/22 66/66/66 21/21/21
f 47/128/47 73/73/73 77/77/77
f 74/74/74 37/129/37 76/76/76
f 75/75/75 37/129/37 74/74/74
f 75/75/75 61/130/61 37/129/37
f 78/78/78 61/130/61 75/75/75
f 47/128/47 80/80/80 89/89/89
f 80/80/80 47/128/47 48/131/48
f 81/81/81 80/80/80 48/131/48
f 46/132/46 82/82/82 81/81/81
f 82/82/82 46/132/46 83/83/83
f 84/84/84 83/83/83 46/132/46
f 73/73/73 47/128/47 89/89/89
f 92/92/92 95/95/95 41/133/41
f 35/134/35 92/92/92 41/133/41
f 92/92/92 35/134/35 94/94/94
f 34/135/34 94/94/94 35/134/35
f 94/94/94 34/135/34 96/96/96
